<svg width="20" height="21" viewBox="0 0 78 77" fill="none" xmlns="http://www.w3.org/2000/svg">
<mask id="path-1-inside-1_211_10" fill="white">
<path fill-rule="evenodd" clip-rule="evenodd" d="M2.93741 65.216C0.253702 67.8997 0.253703 72.2509 2.93741 74.9346C5.62112 77.6183 9.97228 77.6183 12.656 74.9346L38.9361 48.6545L65.2658 74.9842C67.9495 77.6679 72.3006 77.6679 74.9844 74.9842C77.6681 72.3005 77.6681 67.9493 74.9844 65.2656L48.6546 38.9359L75.0623 12.5283C77.746 9.84455 77.746 5.4934 75.0623 2.80969C72.3786 0.125975 68.0274 0.125972 65.3437 2.80968L38.9361 29.2173L12.578 2.85932C9.89433 0.175608 5.54317 0.175609 2.85946 2.85932C0.17575 5.54303 0.175747 9.89418 2.85946 12.5779L29.2175 38.9359L2.93741 65.216Z"/>
</mask>
<path fill-rule="evenodd" clip-rule="evenodd" d="M2.93741 65.216C0.253702 67.8997 0.253703 72.2509 2.93741 74.9346C5.62112 77.6183 9.97228 77.6183 12.656 74.9346L38.9361 48.6545L65.2658 74.9842C67.9495 77.6679 72.3006 77.6679 74.9844 74.9842C77.6681 72.3005 77.6681 67.9493 74.9844 65.2656L48.6546 38.9359L75.0623 12.5283C77.746 9.84455 77.746 5.4934 75.0623 2.80969C72.3786 0.125975 68.0274 0.125972 65.3437 2.80968L38.9361 29.2173L12.578 2.85932C9.89433 0.175608 5.54317 0.175609 2.85946 2.85932C0.17575 5.54303 0.175747 9.89418 2.85946 12.5779L29.2175 38.9359L2.93741 65.216Z" fill="#99A799"/>
<path d="M2.93741 74.9346L2.23031 75.6417L2.23031 75.6417L2.93741 74.9346ZM2.93741 65.216L2.23031 64.5089L2.23031 64.5089L2.93741 65.216ZM12.656 74.9346L13.3631 75.6417L13.3631 75.6417L12.656 74.9346ZM38.9361 48.6545L39.6432 47.9474L38.9361 47.2403L38.229 47.9474L38.9361 48.6545ZM74.9844 74.9842L74.2772 74.2771L74.2772 74.2771L74.9844 74.9842ZM48.6546 38.9359L47.9475 38.2288L47.2404 38.9359L47.9475 39.643L48.6546 38.9359ZM75.0623 12.5283L75.7694 13.2354L75.7694 13.2354L75.0623 12.5283ZM75.0623 2.80969L74.3552 3.51679L74.3552 3.51679L75.0623 2.80969ZM65.3437 2.80968L64.6366 2.10258L64.6366 2.10258L65.3437 2.80968ZM38.9361 29.2173L38.229 29.9245L38.9361 30.6316L39.6432 29.9245L38.9361 29.2173ZM12.578 2.85932L13.2851 2.15221L13.2851 2.15221L12.578 2.85932ZM2.85946 2.85932L3.56657 3.56643L3.56657 3.56643L2.85946 2.85932ZM2.85946 12.5779L3.56656 11.8708L3.56656 11.8708L2.85946 12.5779ZM29.2175 38.9359L29.9246 39.643L30.6317 38.9359L29.9246 38.2288L29.2175 38.9359ZM3.64452 74.2275C1.35133 71.9343 1.35133 68.2163 3.64452 65.9231L2.23031 64.5089C-0.843929 67.5831 -0.843927 72.5674 2.23031 75.6417L3.64452 74.2275ZM11.9489 74.2275C9.6557 76.5207 5.93771 76.5207 3.64452 74.2275L2.23031 75.6417C5.30454 78.7159 10.2889 78.7159 13.3631 75.6417L11.9489 74.2275ZM38.229 47.9474L11.9489 74.2275L13.3631 75.6417L39.6432 49.3616L38.229 47.9474ZM65.9729 74.2771L39.6432 47.9474L38.229 49.3616L64.5587 75.6913L65.9729 74.2771ZM74.2772 74.2771C71.9841 76.5703 68.2661 76.5703 65.9729 74.2771L64.5587 75.6913C67.6329 78.7656 72.6172 78.7656 75.6915 75.6913L74.2772 74.2771ZM74.2772 65.9727C76.5704 68.2659 76.5704 71.9839 74.2772 74.2771L75.6915 75.6913C78.7657 72.6171 78.7657 67.6328 75.6915 64.5585L74.2772 65.9727ZM47.9475 39.643L74.2772 65.9727L75.6915 64.5585L49.3618 38.2288L47.9475 39.643ZM74.3552 11.8212L47.9475 38.2288L49.3618 39.643L75.7694 13.2354L74.3552 11.8212ZM74.3552 3.51679C76.6484 5.80998 76.6484 9.52797 74.3552 11.8212L75.7694 13.2354C78.8436 10.1611 78.8436 5.17681 75.7694 2.10258L74.3552 3.51679ZM66.0508 3.51679C68.344 1.2236 72.062 1.22361 74.3552 3.51679L75.7694 2.10258C72.6952 -0.971656 67.7109 -0.971659 64.6366 2.10258L66.0508 3.51679ZM39.6432 29.9245L66.0508 3.51679L64.6366 2.10258L38.229 28.5102L39.6432 29.9245ZM11.8709 3.56643L38.229 29.9245L39.6432 28.5102L13.2851 2.15221L11.8709 3.56643ZM3.56657 3.56643C5.85975 1.27324 9.57774 1.27324 11.8709 3.56643L13.2851 2.15221C10.2109 -0.922023 5.22659 -0.922022 2.15235 2.15221L3.56657 3.56643ZM3.56656 11.8708C1.27338 9.5776 1.27338 5.85961 3.56657 3.56643L2.15235 2.15221C-0.92188 5.22645 -0.921885 10.2108 2.15235 13.285L3.56656 11.8708ZM29.9246 38.2288L3.56656 11.8708L2.15235 13.285L28.5104 39.643L29.9246 38.2288ZM3.64452 65.9231L29.9246 39.643L28.5104 38.2288L2.23031 64.5089L3.64452 65.9231Z" fill="black" mask="url(#path-1-inside-1_211_10)"/>
</svg>
