<svg width="52" height="52" viewBox="0 0 52 52" fill="none" xmlns="http://www.w3.org/2000/svg">
<path fill-rule="evenodd" clip-rule="evenodd" d="M16.1742 2.30963C18.7157 2.19263 19.5261 2.16663 26.0001 2.16663C32.4741 2.16663 33.2844 2.19479 35.8237 2.30963C38.3631 2.42446 40.0964 2.82963 41.6131 3.41679C43.2012 4.01696 44.6421 4.95513 45.8337 6.16846C47.0471 7.35796 47.9831 8.79663 48.5811 10.387C49.1704 11.9036 49.5734 13.637 49.6904 16.172C49.8074 18.7178 49.8334 19.5281 49.8334 26C49.8334 32.474 49.8052 33.2843 49.6904 35.8258C49.5756 38.3608 49.1704 40.0941 48.5811 41.6108C47.9831 43.2013 47.0455 44.6424 45.8337 45.8336C44.6421 47.047 43.2012 47.983 41.6131 48.581C40.0964 49.1703 38.3631 49.5733 35.8281 49.6903C33.2844 49.8073 32.4741 49.8333 26.0001 49.8333C19.5261 49.8333 18.7157 49.8051 16.1742 49.6903C13.6392 49.5755 11.9059 49.1703 10.3892 48.581C8.79874 47.9829 7.35769 47.0453 6.16641 45.8336C4.9539 44.6434 4.0156 43.203 3.41691 41.613C2.82975 40.0963 2.42675 38.363 2.30975 35.828C2.19275 33.2821 2.16675 32.4718 2.16675 26C2.16675 19.526 2.19491 18.7156 2.30975 16.1763C2.42458 13.637 2.82975 11.9036 3.41691 10.387C4.01648 8.7968 4.95551 7.35647 6.16858 6.16629C7.35817 4.95405 8.79777 4.01575 10.3871 3.41679C11.9037 2.82963 13.6371 2.42663 16.1721 2.30963H16.1742ZM35.6309 6.59963C33.1176 6.48479 32.3636 6.46096 26.0001 6.46096C19.6366 6.46096 18.8826 6.48479 16.3692 6.59963C14.0444 6.70579 12.7834 7.09363 11.9427 7.42079C10.8312 7.85413 10.0361 8.36763 9.20191 9.20179C8.41118 9.97107 7.80264 10.9076 7.42091 11.9426C7.09375 12.7833 6.70591 14.0443 6.59975 16.3691C6.48491 18.8825 6.46108 19.6365 6.46108 26C6.46108 32.3635 6.48491 33.1175 6.59975 35.6308C6.70591 37.9556 7.09375 39.2166 7.42091 40.0573C7.80225 41.0908 8.41108 42.029 9.20191 42.7981C9.97108 43.589 10.9092 44.1978 11.9427 44.5791C12.7834 44.9063 14.0444 45.2941 16.3692 45.4003C18.8826 45.5151 19.6344 45.539 26.0001 45.539C32.3657 45.539 33.1176 45.5151 35.6309 45.4003C37.9557 45.2941 39.2167 44.9063 40.0574 44.5791C41.1689 44.1458 41.9641 43.6323 42.7982 42.7981C43.5891 42.029 44.1979 41.0908 44.5792 40.0573C44.9064 39.2166 45.2942 37.9556 45.4004 35.6308C45.5152 33.1175 45.5391 32.3635 45.5391 26C45.5391 19.6365 45.5152 18.8825 45.4004 16.3691C45.2942 14.0443 44.9064 12.7833 44.5792 11.9426C44.1459 10.8311 43.6324 10.036 42.7982 9.20179C42.0289 8.41111 41.0924 7.80258 40.0574 7.42079C39.2167 7.09363 37.9557 6.70579 35.6309 6.59963ZM22.9559 33.3471C24.656 34.0548 26.5491 34.1503 28.3118 33.6174C30.0745 33.0844 31.5974 31.9559 32.6206 30.4248C33.6437 28.8937 34.1035 27.0548 33.9215 25.2224C33.7395 23.3899 32.9269 21.6774 31.6226 20.3775C30.7911 19.5465 29.7857 18.9102 28.6788 18.5144C27.5719 18.1187 26.391 17.9732 25.2212 18.0886C24.0513 18.204 22.9216 18.5773 21.9133 19.1817C20.9051 19.7861 20.0434 20.6066 19.3902 21.584C18.7371 22.5614 18.3088 23.6714 18.1362 24.8342C17.9636 25.997 18.0509 27.1836 18.3919 28.3086C18.7329 29.4336 19.3191 30.4689 20.1083 31.3402C20.8975 32.2114 21.87 32.8969 22.9559 33.3471ZM17.3377 17.3376C18.4753 16.2001 19.8258 15.2977 21.3121 14.6821C22.7983 14.0664 24.3913 13.7496 26.0001 13.7496C27.6088 13.7496 29.2018 14.0664 30.6881 14.6821C32.1744 15.2977 33.5249 16.2001 34.6624 17.3376C35.8 18.4752 36.7023 19.8257 37.318 21.3119C37.9336 22.7982 38.2505 24.3912 38.2505 26C38.2505 27.6087 37.9336 29.2017 37.318 30.688C36.7023 32.1743 35.8 33.5247 34.6624 34.6623C32.365 36.9597 29.2491 38.2503 26.0001 38.2503C22.7511 38.2503 19.6351 36.9597 17.3377 34.6623C15.0404 32.3649 13.7497 29.249 13.7497 26C13.7497 22.751 15.0404 19.635 17.3377 17.3376ZM40.9674 15.574C41.2493 15.308 41.475 14.9883 41.6311 14.6336C41.7872 14.2789 41.8705 13.8965 41.8761 13.509C41.8818 13.1215 41.8096 12.7368 41.664 12.3777C41.5183 12.0186 41.302 11.6924 41.028 11.4184C40.754 11.1444 40.4278 10.9281 40.0687 10.7824C39.7096 10.6367 39.3249 10.5646 38.9374 10.5702C38.5499 10.5759 38.1675 10.6592 37.8128 10.8153C37.4581 10.9714 37.1383 11.1971 36.8724 11.479C36.3553 12.0272 36.0721 12.7554 36.0831 13.509C36.0941 14.2626 36.3983 14.9822 36.9313 15.5151C37.4642 16.048 38.1838 16.3523 38.9374 16.3633C39.691 16.3743 40.4192 16.0911 40.9674 15.574Z" fill="black"/>
</svg>
