<svg width="37" height="42" viewBox="0 0 37 42" fill="none" xmlns="http://www.w3.org/2000/svg">
<path d="M8.28205 36.7503H0.611161V12.2147H8.28205V36.7503ZM4.44248 8.86786C1.98958 8.86786 0 6.84989 0 4.41356C1.75568e-08 3.2433 0.468045 2.12098 1.30117 1.29348C2.1343 0.465982 3.26426 0.00109863 4.44248 0.00109863C5.6207 0.00109863 6.75066 0.465982 7.58378 1.29348C8.41691 2.12098 8.88496 3.2433 8.88496 4.41356C8.88496 6.84989 6.89455 8.86786 4.44248 8.86786ZM36.9917 36.7503H29.3374V24.8065C29.3374 21.96 29.2796 18.3097 25.3491 18.3097C21.3609 18.3097 20.7497 21.4022 20.7497 24.6015V36.7503H13.0871V12.2147H20.4442V15.5616H20.5515C21.5756 13.6339 24.0773 11.5995 27.8095 11.5995C35.5729 11.5995 37 16.6772 37 23.2726V36.7503H36.9917Z" fill="black"/>
</svg>
