<svg width="40" height="21" viewBox="0 0 122 102" fill="none" xmlns="http://www.w3.org/2000/svg">
<mask id="path-1-inside-1_315_2" fill="white">
<path fill-rule="evenodd" clip-rule="evenodd" d="M10 16.8721C10 13.0767 13.0767 10 16.8721 10H105.128C108.923 10 112 13.0767 112 16.8721C112 20.6674 108.923 23.7441 105.128 23.7441H16.8721C13.0767 23.7441 10 20.6674 10 16.8721ZM36.4912 50.6153C36.4912 46.8205 39.5675 43.7441 43.3624 43.7441H105.129C108.924 43.7441 112 46.8205 112 50.6153C112 54.4102 108.924 57.4865 105.129 57.4865H43.3624C39.5675 57.4865 36.4912 54.4102 36.4912 50.6153ZM10 84.3577C10 80.5628 13.0763 77.4865 16.8712 77.4865H105.129C108.924 77.4865 112 80.5628 112 84.3577C112 88.1525 108.924 91.2289 105.129 91.2289H16.8712C13.0763 91.2289 10 88.1525 10 84.3577Z"/>
</mask>
<path fill-rule="evenodd" clip-rule="evenodd" d="M10 16.8721C10 13.0767 13.0767 10 16.8721 10H105.128C108.923 10 112 13.0767 112 16.8721C112 20.6674 108.923 23.7441 105.128 23.7441H16.8721C13.0767 23.7441 10 20.6674 10 16.8721ZM36.4912 50.6153C36.4912 46.8205 39.5675 43.7441 43.3624 43.7441H105.129C108.924 43.7441 112 46.8205 112 50.6153C112 54.4102 108.924 57.4865 105.129 57.4865H43.3624C39.5675 57.4865 36.4912 54.4102 36.4912 50.6153ZM10 84.3577C10 80.5628 13.0763 77.4865 16.8712 77.4865H105.129C108.924 77.4865 112 80.5628 112 84.3577C112 88.1525 108.924 91.2289 105.129 91.2289H16.8712C13.0763 91.2289 10 88.1525 10 84.3577Z" fill="#99A799"/>
<path d="M11 16.8721C11 13.629 13.629 11 16.8721 11V9C12.5244 9 9 12.5244 9 16.8721H11ZM16.8721 11H105.128V9H16.8721V11ZM105.128 11C108.371 11 111 13.629 111 16.8721H113C113 12.5244 109.476 9 105.128 9V11ZM111 16.8721C111 20.1151 108.371 22.7441 105.128 22.7441V24.7441C109.476 24.7441 113 21.2197 113 16.8721H111ZM105.128 22.7441H16.8721V24.7441H105.128V22.7441ZM16.8721 22.7441C13.629 22.7441 11 20.1151 11 16.8721H9C9 21.2197 12.5244 24.7441 16.8721 24.7441V22.7441ZM37.4912 50.6153C37.4912 47.3728 40.1198 44.7441 43.3624 44.7441V42.7441C39.0153 42.7441 35.4912 46.2682 35.4912 50.6153H37.4912ZM43.3624 44.7441H105.129V42.7441H43.3624V44.7441ZM105.129 44.7441C108.371 44.7441 111 47.3728 111 50.6153H113C113 46.2682 109.476 42.7441 105.129 42.7441V44.7441ZM111 50.6153C111 53.8579 108.371 56.4865 105.129 56.4865V58.4865C109.476 58.4865 113 54.9625 113 50.6153H111ZM105.129 56.4865H43.3624V58.4865H105.129V56.4865ZM43.3624 56.4865C40.1198 56.4865 37.4912 53.8579 37.4912 50.6153H35.4912C35.4912 54.9625 39.0153 58.4865 43.3624 58.4865V56.4865ZM11 84.3577C11 81.1151 13.6286 78.4865 16.8712 78.4865V76.4865C12.524 76.4865 9 80.0106 9 84.3577H11ZM16.8712 78.4865H105.129V76.4865H16.8712V78.4865ZM105.129 78.4865C108.371 78.4865 111 81.1151 111 84.3577H113C113 80.0106 109.476 76.4865 105.129 76.4865V78.4865ZM111 84.3577C111 87.6003 108.371 90.2289 105.129 90.2289V92.2289C109.476 92.2289 113 88.7048 113 84.3577H111ZM105.129 90.2289H16.8712V92.2289H105.129V90.2289ZM16.8712 90.2289C13.6286 90.2289 11 87.6003 11 84.3577H9C9 88.7048 12.5241 92.2289 16.8712 92.2289V90.2289Z" fill="black" mask="url(#path-1-inside-1_315_2)"/>
</svg>
