<svg width="51" height="51" viewBox="0 0 51 51" fill="none" xmlns="http://www.w3.org/2000/svg">
<path d="M50.2415 10.4911C48.4671 11.2774 46.561 11.8086 44.5571 12.0487C46.6247 10.8115 48.1716 8.86435 48.9091 6.57048C46.9665 7.72433 44.8405 8.53652 42.6233 8.97173C41.1324 7.37982 39.1576 6.32467 37.0055 5.97011C34.8535 5.61555 32.6445 5.98141 30.7217 7.01089C28.7989 8.04037 27.2697 9.67587 26.3717 11.6635C25.4736 13.6511 25.2569 15.8796 25.7551 18.003C21.8189 17.8053 17.9683 16.7823 14.4531 15.0002C10.9379 13.218 7.83675 10.7167 5.35084 7.65848C4.50084 9.12473 4.01209 10.8247 4.01209 12.6352C4.01114 14.2651 4.41251 15.87 5.18058 17.3075C5.94865 18.7451 7.05968 19.9708 8.41509 20.876C6.84317 20.826 5.30594 20.4012 3.93134 19.6371V19.7646C3.93118 22.0506 4.72191 24.2662 6.16935 26.0355C7.61679 27.8048 9.6318 29.0188 11.8725 29.4716C10.4143 29.8663 8.88543 29.9244 7.40146 29.6416C8.03364 31.6085 9.26508 33.3285 10.9234 34.5608C12.5817 35.7931 14.5838 36.476 16.6495 36.5139C13.1429 39.2666 8.81222 40.7598 4.35421 40.7532C3.56452 40.7534 2.7755 40.7073 1.99121 40.6151C6.51635 43.5246 11.7839 45.0687 17.1637 45.0627C35.375 45.0627 45.3306 29.9795 45.3306 16.898C45.3306 16.473 45.32 16.0437 45.3008 15.6187C47.2373 14.2183 48.9089 12.4841 50.2372 10.4975L50.2415 10.4911Z" fill="black"/>
</svg>
